<svg width="96" height="96" xmlns="http://www.w3.org/2000/svg" xmlns:xlink="http://www.w3.org/1999/xlink" xml:space="preserve" overflow="hidden"><g transform="translate(-866 -360)"><path d="M954 408 955 408 955 392 873 392 873 408 874 408C878.004 408 881.25 411.246 881.25 415.25 881.25 419.254 878.004 422.5 874 422.5L873 422.5 873 438 955 438 955 422.5 954 422.5C949.996 422.5 946.75 419.254 946.75 415.25 946.75 411.246 949.996 408 954 408ZM944.75 415.25C944.754 419.971 948.307 423.934 953 424.45L953 436 936 436 936 432 934 432 934 436 875 436 875 424.446C880.079 423.895 883.749 419.331 883.198 414.252 882.729 409.933 879.319 406.523 875 406.054L875 394 934 394 934 398 936 398 936 394 953 394 953 406.054C948.309 406.57 944.756 410.531 944.75 415.25Z" stroke="#FFFFFF" fill="#FFFFFF"/><path d="M934 402 936 402 936 408 934 408Z" stroke="#FFFFFF" fill="#FFFFFF"/><path d="M934 412 936 412 936 418 934 418Z" stroke="#FFFFFF" fill="#FFFFFF"/><path d="M934 422 936 422 936 428 934 428Z" stroke="#FFFFFF" fill="#FFFFFF"/><path d="M890 406 923 406 923 408 890 408Z" stroke="#FFFFFF" fill="#FFFFFF"/><path d="M890 414 909 414 909 416 890 416Z" stroke="#FFFFFF" fill="#FFFFFF"/><path d="M890 422 916 422 916 424 890 424Z" stroke="#FFFFFF" fill="#FFFFFF"/><path d="M891.543 389 901.077 389 941.761 381.171 943.27 389 945.307 389 943.346 378.829 891.524 388.8C891.469 388.805 891.428 388.854 891.433 388.909 891.439 388.965 891.488 389.005 891.543 389Z" stroke="#FFFFFF" fill="#FFFFFF"/></g></svg>